<?xml version="1.0" encoding="UTF-8" standalone="no"?>
<?xml-stylesheet type="text/css" href="../css/main.css" ?>
<svg width="32" height="32" viewBox="0 0 32 32" xmlns="http://www.w3.org/2000/svg">
<path class="services-item-icon" d="M29.3567 14.6625C28.8986 14.0544 27.1967 13.6356 26.4767 12.5413C25.7567 11.4469 25.1673 9.07688 23.3348 8.16625C21.5023 7.25563 17.9998 7 15.9998 7C13.9998 7 10.4998 7.25 8.66484 8.16438C6.82984 9.07875 6.24297 11.4469 5.52297 12.5394C4.80297 13.6319 3.10109 14.0544 2.64297 14.6625C2.18484 15.2706 1.86234 19.115 2.05859 21C2.25484 22.885 2.62109 24 2.62109 24H7.99609C8.87609 24 9.16234 23.6694 10.9623 23.5C12.9373 23.3125 14.8748 23.25 15.9998 23.25C17.1248 23.25 19.1248 23.3125 21.0986 23.5C22.8986 23.6706 23.1942 24 24.0648 24H29.3773C29.3773 24 29.7436 22.885 29.9398 21C30.1361 19.115 29.8123 15.2706 29.3567 14.6625ZM24.9998 24H28.4998V25H24.9998V24ZM3.49984 24H6.99984V25H3.49984V24Z" stroke="#0B2052" stroke-width="2" stroke-linecap="round" stroke-linejoin="round"/>
<path class="services-item-icon" d="M22.7795 19.3225C22.4102 18.8956 21.2064 18.5394 19.6127 18.3006C18.0189 18.0619 17.4377 18 16.0127 18C14.5877 18 13.9395 18.1025 12.412 18.3006C10.8845 18.4987 9.73766 18.8512 9.24578 19.3225C8.50766 20.0375 9.58891 20.84 10.4377 20.9375C11.2602 21.0312 12.9045 20.9969 16.0195 20.9969C19.1345 20.9969 20.7789 21.0312 21.6014 20.9375C22.4489 20.8344 23.4527 20.0875 22.7795 19.3225ZM26.9733 15.1906C26.9698 15.141 26.9481 15.0944 26.9123 15.0598C26.8765 15.0252 26.8293 15.005 26.7795 15.0031C26.0414 14.9769 25.292 15.0294 23.9627 15.4212C23.2844 15.6192 22.6475 15.9381 22.0827 16.3625C21.9402 16.4737 21.9908 16.7744 22.1695 16.8062C23.2653 16.9348 24.3675 16.9995 25.4708 17C26.1327 17 26.8158 16.8125 26.9427 16.2225C27.0073 15.8823 27.0177 15.534 26.9733 15.1906ZM5.02703 15.1906C5.03054 15.141 5.05226 15.0944 5.08802 15.0598C5.12378 15.0252 5.17106 15.005 5.22078 15.0031C5.95891 14.9769 6.70829 15.0294 8.03766 15.4212C8.71589 15.6192 9.35277 15.9381 9.91766 16.3625C10.0602 16.4737 10.0095 16.7744 9.83078 16.8062C8.73505 16.9348 7.63278 16.9995 6.52953 17C5.86766 17 5.18453 16.8125 5.05766 16.2225C4.99297 15.8823 4.98264 15.534 5.02703 15.1906Z" fill="#0B2052"/>
<path class="services-item-icon" d="M4.875 13.1875C4.875 13.1875 7.77188 12.4375 16 12.4375C24.2281 12.4375 27.125 13.1875 27.125 13.1875M27 12H28H27ZM4 12H5H4Z" stroke="#0B2052" stroke-width="2" stroke-linecap="round" stroke-linejoin="round"/>
</svg>
