<?xml version="1.0" encoding="UTF-8" standalone="no"?>
<?xml-stylesheet type="text/css" href="../css/main.css"?>
<svg width="28" height="28" viewBox="0 0 28 28" xmlns="http://www.w3.org/2000/svg">
<path class="service-item-icon" d="M27.985 13.83C27.4229 10.7089 25.8449 7.86106 23.4964 5.72982C21.148 3.59858 18.1608 2.30345 15 2.046V0H13V2.046C9.83908 2.30345 6.85197 3.59858 4.50352 5.72982C2.15506 7.86106 0.577012 10.7089 0.0149608 13.83C-0.0174045 14.0182 0.00477551 14.2117 0.0788796 14.3876C0.152984 14.5636 0.275914 14.7147 0.433142 14.823C0.59037 14.9313 0.775322 14.9924 0.966141 14.9989C1.15696 15.0055 1.34567 14.9573 1.50996 14.86C2.24484 14.3493 3.10656 14.0517 3.99996 14C4.84909 14.0206 5.67804 14.2631 6.40436 14.7034C7.13068 15.1438 7.72905 15.7666 8.13996 16.51C8.23533 16.6502 8.36355 16.765 8.51344 16.8444C8.66334 16.9237 8.83036 16.9652 8.99996 16.9652C9.16956 16.9652 9.33658 16.9237 9.48648 16.8444C9.63637 16.765 9.76459 16.6502 9.85996 16.51C10.1954 15.9213 10.6465 15.4066 11.1861 14.9969C11.7258 14.5871 12.3428 14.2909 13 14.126V23.5C13 24.163 12.7366 24.7989 12.2677 25.2678C11.7989 25.7366 11.163 26 10.5 26C9.83692 26 9.20103 25.7366 8.73219 25.2678C8.26335 24.7989 7.99996 24.163 7.99996 23.5V23H5.99996V23.5C5.99996 24.6935 6.47407 25.8381 7.31798 26.682C8.16189 27.5259 9.30649 28 10.5 28C11.6934 28 12.838 27.5259 13.6819 26.682C14.5259 25.8381 15 24.6935 15 23.5V14.125C15.6573 14.2901 16.2744 14.5867 16.8141 14.9967C17.3537 15.4068 17.8048 15.9219 18.14 16.511C18.2285 16.6602 18.3544 16.7838 18.5051 16.8697C18.6559 16.9556 18.8264 17.0007 19 17.0007C19.1735 17.0007 19.344 16.9556 19.4948 16.8697C19.6456 16.7838 19.7714 16.6602 19.86 16.511C20.2707 15.7674 20.8691 15.1444 21.5954 14.7039C22.3217 14.2633 23.1507 14.0207 24 14C24.8934 14.0517 25.7551 14.3493 26.49 14.86C26.6543 14.9576 26.8431 15.006 27.0341 14.9996C27.2251 14.9932 27.4102 14.9322 27.5676 14.8238C27.725 14.7155 27.8481 14.5643 27.9222 14.3881C27.9964 14.212 28.0175 14.0183 27.985 13.83ZM3.99996 12C3.49144 12 2.98545 12.0717 2.49696 12.213C3.1758 10.3221 4.30246 8.62379 5.78062 7.26319C7.25877 5.90258 9.04445 4.92019 10.985 4.4C9.00272 6.95552 7.93069 10.0998 7.93896 13.334C6.80594 12.4729 5.42308 12.0045 3.99996 12ZM14 12C12.5256 12.0068 11.0966 12.5106 9.94396 13.43C9.98096 11.21 10.552 6.94 14 4.254C17.43 6.931 18.009 11.204 18.052 13.427C16.9 12.5095 15.4726 12.0069 14 12ZM24 12C22.577 12.0042 21.1941 12.4722 20.061 13.333C20.0692 10.0988 18.9972 6.95452 17.015 4.399C18.9556 4.91928 20.7413 5.90183 22.2195 7.26262C23.6977 8.62341 24.8243 10.3219 25.503 12.213C25.0145 12.0717 24.5085 12 24 12Z"/>
</svg>
