<svg width="32" height="32" viewBox="0 0 32 32" fill="none" xmlns="http://www.w3.org/2000/svg">
    <path class="img-svg-stroke"
          d="M28.714 14.4057C28.2712 13.8498 26.6264 13.4669 25.9305 12.4664C25.2345 11.4658 24.6649 9.29889 22.8937 8.46631C21.1225 7.63374 17.7373 7.40002 15.8042 7.40002C13.8712 7.40002 10.4883 7.6286 8.71472 8.4646C6.94114 9.3006 6.37391 11.4658 5.678 12.4646C4.98211 13.4635 3.33719 13.8498 2.8944 14.4057C2.45161 14.9617 2.1399 18.4766 2.32958 20.2C2.51927 21.9235 2.87326 22.9429 2.87326 22.9429H8.06836C8.9189 22.9429 9.19559 22.6406 10.9353 22.4857C12.8442 22.3143 14.7169 22.2572 15.8042 22.2572C16.8916 22.2572 18.8247 22.3143 20.7323 22.4857C22.4721 22.6417 22.7578 22.9429 23.5993 22.9429H28.734C28.734 22.9429 29.088 21.9235 29.2777 20.2C29.4673 18.4766 29.1544 14.9617 28.714 14.4057ZM24.503 22.9429H27.8859V23.8572H24.503V22.9429ZM3.72259 22.9429H7.10545V23.8572H3.72259V22.9429Z"
          stroke-width="2" stroke-linecap="round" stroke-linejoin="round"/>
    <path class="img-svg-fill"
          d="M22.3566 18.6663C21.9996 18.276 20.8361 17.9503 19.2957 17.732C17.7553 17.5137 17.1935 17.4571 15.8162 17.4571C14.4389 17.4571 13.8124 17.5508 12.3361 17.732C10.8597 17.9131 9.75124 18.2354 9.27581 18.6663C8.56238 19.32 9.60743 20.0537 10.4278 20.1428C11.2228 20.2285 12.8121 20.1971 15.8228 20.1971C18.8336 20.1971 20.4229 20.2285 21.2178 20.1428C22.037 20.0486 23.0072 19.3657 22.3566 18.6663ZM26.41 14.8885C26.4066 14.8432 26.3856 14.8006 26.351 14.7689C26.3165 14.7373 26.2707 14.7188 26.2227 14.7171C25.5093 14.6931 24.785 14.7411 23.5001 15.0994C22.8445 15.2804 22.229 15.572 21.683 15.96C21.5453 16.0616 21.5943 16.3366 21.767 16.3656C22.8261 16.4832 23.8914 16.5424 24.9577 16.5428C25.5975 16.5428 26.2578 16.3714 26.3804 15.832C26.4429 15.5209 26.4529 15.2025 26.41 14.8885ZM5.19825 14.8885C5.20164 14.8432 5.22263 14.8006 5.25719 14.7689C5.29175 14.7373 5.33745 14.7188 5.38551 14.7171C6.09894 14.6931 6.82322 14.7411 8.10811 15.0994C8.76363 15.2804 9.37922 15.572 9.92523 15.96C10.0629 16.0616 10.014 16.3366 9.84121 16.3656C8.78216 16.4832 7.71677 16.5424 6.65046 16.5428C6.01073 16.5428 5.35047 16.3714 5.22785 15.832C5.16533 15.5209 5.15534 15.2025 5.19825 14.8885Z"/>
    <path class="img-svg-stroke"
          d="M5.05152 13.0571C5.05152 13.0571 7.85144 12.3714 15.8042 12.3714C23.7569 12.3714 26.5568 13.0571 26.5568 13.0571M26.436 11.9714H27.4025H26.436ZM4.20581 11.9714H5.17234H4.20581Z"
          stroke-width="2" stroke-linecap="round" stroke-linejoin="round"/>
</svg>