<svg width="30" height="28" viewBox="0 0 30 28" fill="none" xmlns="http://www.w3.org/2000/svg">
<path d="M29.5836 13.83C28.9894 10.7089 27.3212 7.86106 24.8385 5.72982C22.3559 3.59858 19.1981 2.30345 15.8566 2.046V0H13.7423V2.046C10.4008 2.30345 7.243 3.59858 4.76035 5.72982C2.2777 7.86106 0.609466 10.7089 0.0152961 13.83C-0.0189139 14.0182 0.00453608 14.2117 0.0828661 14.3876C0.161206 14.5636 0.291166 14.7147 0.457376 14.823C0.623586 14.9313 0.819106 14.9924 1.02084 14.9989C1.22256 15.0055 1.42205 14.9573 1.59573 14.86C2.3726 14.3493 3.28357 14.0517 4.22802 14C5.12567 14.0206 6.00199 14.2631 6.76981 14.7034C7.53762 15.1438 8.17022 15.7666 8.60462 16.51C8.70542 16.6502 8.84092 16.765 8.99942 16.8444C9.15792 16.9237 9.33442 16.9652 9.51372 16.9652C9.69302 16.9652 9.86962 16.9237 10.028 16.8444C10.1865 16.765 10.322 16.6502 10.4229 16.51C10.7774 15.9213 11.2543 15.4066 11.8248 14.9969C12.3953 14.5871 13.0475 14.2909 13.7423 14.126V23.5C13.7423 24.163 13.4638 24.7989 12.9682 25.2678C12.4726 25.7366 11.8004 26 11.0994 26C10.3985 26 9.72632 25.7366 9.23062 25.2678C8.73502 24.7989 8.45662 24.163 8.45662 23.5V23H6.3423V23.5C6.3423 24.6935 6.8435 25.8381 7.73562 26.682C8.62782 27.5259 9.83782 28 11.0994 28C12.3611 28 13.5711 27.5259 14.4632 26.682C15.3554 25.8381 15.8566 24.6935 15.8566 23.5V14.125C16.5515 14.2901 17.2039 14.5867 17.7743 14.9967C18.3448 15.4068 18.8216 15.9219 19.176 16.511C19.2696 16.6602 19.4026 16.7838 19.562 16.8697C19.7214 16.9556 19.9017 17.0007 20.0851 17.0007C20.2686 17.0007 20.4488 16.9556 20.6082 16.8697C20.7676 16.7838 20.9007 16.6602 20.9943 16.511C21.4285 15.7674 22.061 15.1444 22.8289 14.7039C23.5967 14.2633 24.4731 14.0207 25.3709 14C26.3153 14.0517 27.2263 14.3493 28.0031 14.86C28.1768 14.9576 28.3765 15.006 28.5784 14.9996C28.7803 14.9932 28.976 14.9322 29.1424 14.8238C29.3088 14.7155 29.4389 14.5643 29.5172 14.3881C29.5956 14.212 29.6179 14.0183 29.5836 13.83ZM4.22802 12C3.69044 12 3.15554 12.0717 2.63913 12.213C3.35676 10.3221 4.5478 8.6238 6.11042 7.26319C7.67302 5.90258 9.56072 4.92019 11.6121 4.4C9.51662 6.95552 8.38332 10.0998 8.39212 13.334C7.19434 12.4729 5.73246 12.0045 4.22802 12ZM14.7994 12C13.2408 12.0068 11.7301 12.5106 10.5117 13.43C10.5508 11.21 11.1544 6.94 14.7994 4.254C18.4254 6.931 19.0375 11.204 19.083 13.427C17.8652 12.5095 16.3562 12.0069 14.7994 12ZM25.3709 12C23.8665 12.0042 22.4047 12.4722 21.2068 13.333C21.2155 10.0988 20.0822 6.95452 17.9867 4.399C20.0382 4.91928 21.926 5.90183 23.4886 7.26262C25.0513 8.6234 26.2423 10.3219 26.9597 12.213C26.4433 12.0717 25.9084 12 25.3709 12Z" fill="#690C52"/>
</svg>
