<svg width="32" height="32" viewBox="0 0 32 32" fill="none" xmlns="http://www.w3.org/2000/svg">
<path fill-rule="evenodd" clip-rule="evenodd" d="M26.3496 0.10053C24.0999 0.5825 22.5048 2.66664 22.6494 4.93517C22.7295 6.19143 23.1955 7.19745 24.0917 8.04878C24.6496 8.57871 25.1769 8.89685 25.8615 9.11664L26.3769 9.28216L26.3786 10.3538L26.3803 11.4254L26.1685 11.4652C25.8167 11.5312 25.187 11.8117 24.7555 12.0946C23.525 12.9013 22.7569 14.2142 22.6511 15.6913C22.5887 16.5622 22.7468 17.3153 23.1686 18.1576L23.386 18.5916L20.9875 20.9901L18.589 23.3887L18.1095 23.1435C17.2778 22.7181 16.2312 22.5463 15.3293 22.6872C14.7682 22.7749 14.403 22.8949 13.8538 23.1719L13.4267 23.3875L11.3839 21.3889C10.2605 20.2897 9.1765 19.2225 8.97516 19.0174L8.60905 18.6445L8.86542 18.1215C9.23884 17.3596 9.33813 16.9216 9.33813 16.0352C9.33813 15.1486 9.2389 14.7109 8.86492 13.948L8.60805 13.424L9.16224 12.8807C9.46707 12.582 10.856 11.2088 12.2488 9.82928L14.7812 7.32114L15.1251 7.43982C15.6038 7.60508 16.3848 7.60301 16.8828 7.43525C17.3589 7.27486 17.6462 7.09397 18.0087 6.72624C19.0715 5.64825 19.0715 3.91196 18.0087 2.83396C17.4392 2.25633 16.818 1.99758 16.0005 1.99758C15.1779 1.99758 14.5624 2.25576 13.9821 2.84434C13.2627 3.57411 13.0069 4.72551 13.3467 5.70546L13.4507 6.00547L10.3657 9.05536L7.2807 12.1052L6.81029 11.8668C6.05595 11.4845 5.43936 11.3574 4.50055 11.3906C3.58751 11.4229 3.01125 11.5847 2.27554 12.0156C1.75668 12.3194 0.986325 13.0805 0.690127 13.5819C-0.230042 15.1396 -0.230042 16.9325 0.690127 18.4882C0.941554 18.9132 1.66607 19.669 2.05669 19.9136C2.49332 20.1872 2.99236 20.4214 3.37548 20.5327L3.72501 20.6341L3.76628 22.1435C3.78892 22.9735 3.80749 23.8804 3.80749 24.1588V24.6649L3.47921 24.8154C3.07622 25 2.45481 25.6152 2.25259 26.0295C1.69258 27.1773 1.88911 28.4102 2.77301 29.294C3.85964 30.3807 5.51214 30.4127 6.65691 29.3694C6.85094 29.1925 7.06785 28.9079 7.19284 28.6662L7.40288 28.26L9.41248 28.2598L11.422 28.2596L11.4618 28.4713C11.5795 29.0992 12.0629 29.9626 12.6145 30.5306C13.5035 31.4459 14.5025 31.9108 15.7517 31.9904C17.096 32.0762 18.3569 31.5828 19.3241 30.5926C20.0087 29.8918 20.4009 29.1653 20.5906 28.2464C20.8088 27.1903 20.6671 26.2003 20.1501 25.168L19.9327 24.734L22.3317 22.3351L24.7306 19.9361L25.1646 20.1536C25.7007 20.422 26.0696 20.5459 26.58 20.6287C28.9413 21.0119 31.2139 19.5231 31.8645 17.1669C32.013 16.6291 32.012 15.3546 31.8625 14.8472C31.6027 13.9645 31.2667 13.3752 30.6731 12.7607C30.0728 12.1394 29.1494 11.593 28.4906 11.4695L28.2561 11.4254V10.35V9.27453L28.5809 9.1913C29.7835 8.8831 30.9016 7.95505 31.5059 6.76357C32.572 4.66174 31.8615 2.07049 29.8606 0.763019C28.8215 0.0840222 27.5481 -0.156275 26.3496 0.10053ZM27.8935 1.94224C28.4352 2.05617 28.8836 2.30322 29.2906 2.71216C30.9032 4.33215 30.0241 7.06152 27.765 7.44894C26.88 7.6007 26.0127 7.31688 25.3475 6.6579C24.2354 5.55614 24.2346 3.82567 25.3458 2.7136C26.0365 2.02234 26.9539 1.74459 27.8935 1.94224ZM3.84913 2.12727C3.38392 2.28728 3.09541 2.47067 2.73725 2.83396C1.67445 3.91196 1.67445 5.64825 2.73725 6.72624C3.30676 7.30388 3.92792 7.56262 4.74541 7.56262C6.06233 7.56262 7.13213 6.73724 7.46334 5.46573C7.76223 4.3182 7.25819 3.04293 6.2556 2.41002C5.59443 1.99264 4.58515 1.87409 3.84913 2.12727ZM5.25202 4.01538C5.8104 4.38842 5.8104 5.17178 5.25202 5.54483C4.80675 5.84227 4.15952 5.66801 3.91704 5.18529C3.60927 4.57282 4.05091 3.87344 4.74541 3.87344C4.94713 3.87344 5.10633 3.91802 5.25202 4.01538ZM16.5072 4.01538C16.7521 4.17902 16.9383 4.50923 16.9383 4.7801C16.9383 5.05098 16.7521 5.38119 16.5072 5.54483C16.0619 5.84227 15.4147 5.66801 15.1722 5.18529C14.8644 4.57282 15.306 3.87344 16.0005 3.87344C16.2023 3.87344 16.3615 3.91802 16.5072 4.01538ZM27.8935 13.2611C28.4336 13.3767 28.8843 13.6253 29.2906 14.0316C30.9045 15.6454 30.0236 18.3793 27.765 18.7666C26.8778 18.9187 26.0022 18.6327 25.3458 17.9764C24.2356 16.8662 24.2356 15.1423 25.3458 14.0313C26.0372 13.3393 26.9582 13.0609 27.8935 13.2611ZM5.56516 13.3801C6.04319 13.5411 6.37091 13.7478 6.71069 14.1024C7.74585 15.1827 7.74585 16.8878 6.71069 17.9681C6.16225 18.5405 5.50057 18.8178 4.68289 18.8178C3.86539 18.8178 3.24423 18.559 2.67472 17.9814C1.61192 16.9034 1.61192 15.1671 2.67472 14.0891C3.03288 13.7258 3.32139 13.5424 3.7866 13.3824C4.28721 13.2102 5.05787 13.2092 5.56516 13.3801ZM15.1043 13.3824C13.7091 13.8623 12.9165 15.315 13.2826 16.7209C13.6127 17.9883 14.6879 18.8178 16.0005 18.8178C17.3175 18.8178 18.3873 17.9924 18.7185 16.7209C19.0174 15.5733 18.5133 14.2981 17.5107 13.6652C16.8496 13.2478 15.8403 13.1292 15.1043 13.3824ZM16.5072 15.2705C16.7521 15.4341 16.9383 15.7644 16.9383 16.0352C16.9383 16.3061 16.7521 16.6363 16.5072 16.8C16.0619 17.0974 15.4147 16.9231 15.1722 16.4404C14.8644 15.828 15.306 15.1286 16.0005 15.1286C16.2023 15.1286 16.3615 15.1732 16.5072 15.2705ZM11.8152 25.2351C11.6768 25.5116 11.53 25.8831 11.4891 26.0607L11.4145 26.3837H9.40779H7.40113L7.24762 26.0554C7.05053 25.6339 6.43318 25.0165 6.01162 24.8194L5.68334 24.6659V24.1593C5.68334 23.8807 5.6649 22.9784 5.64239 22.1542L5.60149 20.6557L6.12698 20.4847C6.41605 20.3907 6.79322 20.231 6.96518 20.13L7.27782 19.9463L9.67229 22.3394L12.0668 24.7325L11.8152 25.2351ZM26.6617 24.5342C26.1352 24.6659 25.7411 24.8909 25.3441 25.2864C24.2345 26.3918 24.2352 28.121 25.3458 29.2315C26.9615 30.8472 29.693 29.9672 30.0808 27.7059C30.2329 26.8194 29.9473 25.9447 29.2906 25.285C28.5855 24.5766 27.608 24.2974 26.6617 24.5342ZM16.5759 24.5788C17.1159 24.6944 17.5666 24.9429 17.9729 25.3492C19.5868 26.9631 18.706 29.697 16.4473 30.0843C15.5601 30.2364 14.6845 29.9504 14.0281 29.294C12.9176 28.1835 12.9168 26.4556 14.0264 25.3482C14.7237 24.6523 15.6347 24.3774 16.5759 24.5788ZM27.7575 26.447C28.035 26.5886 28.2561 26.9488 28.2561 27.2591C28.2561 27.737 27.7939 28.197 27.3136 28.197C27.0228 28.197 26.6365 27.9539 26.4989 27.6842C26.268 27.2315 26.4129 26.7374 26.8551 26.4697C27.1544 26.2885 27.433 26.2815 27.7575 26.447ZM5.18474 26.5096C5.46218 26.6511 5.68334 27.0114 5.68334 27.3216C5.68334 27.6319 5.46218 27.9921 5.18474 28.1337C5.04905 28.2029 4.85134 28.2596 4.74541 28.2596C4.26963 28.2596 3.80749 27.7974 3.80749 27.3216C3.80749 27.0209 4.02878 26.652 4.29277 26.5126C4.59447 26.3534 4.87666 26.3524 5.18474 26.5096Z" fill="#0B2052"/>
</svg>
