<svg width="29" height="32" viewBox="0 0 29 32" fill="none" xmlns="http://www.w3.org/2000/svg">
<path fill-rule="evenodd" clip-rule="evenodd" d="M12.7283 0.0581424C10.0184 0.33961 7.40772 1.59126 5.43682 3.55384C1.71463 7.26033 0.76065 12.9136 3.06593 17.6029C3.27052 18.019 3.62129 18.6338 3.84547 18.9691C4.06964 19.3043 4.25303 19.6056 4.25303 19.6385C4.25303 19.6715 3.29604 21.3559 2.12639 23.3817C0.13598 26.829 -0.000249658 27.0843 3.42148e-07 27.3661C0.000310342 27.7771 0.17538 28.0476 0.54873 28.2137L0.84415 28.3451L1.53218 28.168C1.9106 28.0706 2.92388 27.801 3.78392 27.5688C4.64396 27.3366 5.35588 27.1547 5.36595 27.1646C5.37596 27.1745 5.63791 28.1193 5.94803 29.2643C6.25814 30.4093 6.55193 31.4236 6.60091 31.5183C6.88269 32.0632 7.69569 32.1703 8.08034 31.7132C8.16074 31.6176 9.16844 29.9163 10.3196 27.9325C12.3444 24.443 12.4177 24.327 12.5704 24.37C12.776 24.428 15.245 24.428 15.4506 24.37C15.6033 24.327 15.6767 24.443 17.7015 27.9325C18.8527 29.9163 19.8604 31.6176 19.9407 31.7132C20.3254 32.1703 21.1384 32.0632 21.4202 31.5183C21.4692 31.4236 21.763 30.4093 22.0731 29.2643C22.3832 28.1193 22.6451 27.1749 22.6551 27.1656C22.6652 27.1563 23.6803 27.418 24.9108 27.7473L27.1481 28.3461L27.4425 28.2241C27.8308 28.0631 28.0214 27.7832 28.0214 27.3737C28.0214 27.0854 27.8971 26.8523 25.8947 23.3826C24.7251 21.3559 23.7681 19.6709 23.7681 19.6382C23.7681 19.6054 23.9515 19.3043 24.1756 18.9691C24.9862 17.7568 25.665 16.1289 25.9521 14.7087C27.3915 7.59015 22.4001 0.782577 15.208 0.0550776C14.4714 -0.0194801 13.4632 -0.0182291 12.7283 0.0581424ZM15.1026 1.93121C18.6208 2.33421 21.6408 4.44309 23.2291 7.60585C24.7868 10.7078 24.6595 14.543 22.9019 17.4672C21.3003 20.1318 18.8172 21.8514 15.7454 22.4233C14.9549 22.5705 13.0756 22.5732 12.2905 22.4284C10.0854 22.0215 8.23604 21.0465 6.63787 19.4485L6.03722 18.8478L12.1974 18.8166C18.0176 18.787 18.3748 18.7789 18.6694 18.6684C19.6132 18.3144 20.3063 17.5261 20.5077 16.5774C20.5543 16.3579 20.5781 15.2219 20.5781 13.2129C20.5781 10.2966 20.5733 10.1704 20.4522 9.93308C20.3711 9.77415 20.2383 9.6413 20.0793 9.56023C19.8522 9.44439 19.7124 9.43432 18.3289 9.43432H16.8252V7.87368C16.8252 6.94678 16.7964 6.1785 16.7543 5.98159C16.5243 4.90701 15.6606 4.04335 14.586 3.81336C14.4037 3.77433 13.7341 3.74243 13.098 3.74243C11.7535 3.74243 11.5466 3.80053 11.3218 4.24119C11.2029 4.47412 11.1959 4.60678 11.1959 6.59601V8.70401L11.0435 8.96409C10.759 9.4494 10.8415 9.43952 7.24697 9.42013L4.0799 9.40305L4.2576 8.87139C4.53925 8.02886 5.19576 6.78615 5.7445 6.05671C7.97216 3.09574 11.5396 1.52302 15.1026 1.93121ZM14.45 5.74479C14.6089 5.82585 14.7418 5.9587 14.8228 6.11764C14.9416 6.3505 14.9488 6.48323 14.9488 8.46483C14.9488 10.4464 14.9559 10.5791 15.0747 10.812C15.1557 10.9709 15.2886 11.1038 15.4475 11.1849C15.6746 11.3007 15.8144 11.3108 17.198 11.3108H18.7017V13.7527C18.7017 16.0765 18.6956 16.2064 18.5757 16.4414C18.4947 16.6003 18.3618 16.7332 18.2029 16.8142C17.9645 16.9358 17.8402 16.9401 14.576 16.9401H11.1959L11.1961 14.0473L11.1963 11.1544L11.6026 10.9443C12.0626 10.7064 12.5254 10.2388 12.751 9.78409C13.0376 9.20627 13.0708 8.94201 13.0716 7.2295L13.0723 5.61888H13.6377C14.081 5.61888 14.2565 5.64608 14.45 5.74479ZM9.31944 14.1254V16.9401H7.06896H4.81853L4.69975 16.7056C4.3057 15.927 3.91884 14.6056 3.78017 13.5639C3.69047 12.8901 3.66201 11.7035 3.7295 11.4515L3.76722 11.3108H6.54336H9.31944V14.1254ZM6.14887 21.5622C7.21288 22.458 8.72544 23.3286 9.92984 23.7384C10.3089 23.8674 10.4374 23.938 10.4124 24.0033C10.329 24.2212 7.72859 28.6485 7.71321 28.5986C7.70376 28.568 7.51424 27.8711 7.29207 27.0501C6.87249 25.4993 6.80694 25.3556 6.42971 25.1593C6.15644 25.0171 5.92526 25.052 4.37813 25.469C3.56969 25.6869 2.90036 25.8593 2.89073 25.8522C2.86965 25.8364 5.58531 21.1309 5.61546 21.1309C5.62703 21.1309 5.86709 21.3249 6.14887 21.5622ZM23.7873 23.485C24.5356 24.7798 25.1399 25.8447 25.1304 25.8515C25.1207 25.8583 24.4514 25.6858 23.643 25.4682C22.0962 25.0518 21.8648 25.017 21.5914 25.1593C21.2142 25.3556 21.1486 25.4993 20.729 27.0501C20.5069 27.8711 20.3172 28.5685 20.3075 28.5998C20.2918 28.6509 17.6956 24.2304 17.61 24.0067C17.5833 23.937 17.7016 23.8709 18.0912 23.7379C19.3182 23.319 20.8765 22.419 21.8916 21.5429C22.1496 21.3202 22.3756 21.1364 22.3938 21.1344C22.4119 21.1325 23.039 22.1902 23.7873 23.485Z" fill="#0B2052"/>
</svg>
